<svg width="461" height="137" viewBox="0 0 461 137" fill="none" xmlns="http://www.w3.org/2000/svg">
<g clip-path="url(#clip0_2_3)">
<path d="M78.24 130C76 126.373 73.3333 122.48 70.24 118.32C67.2533 114.053 63.9467 109.84 60.32 105.68C56.8 101.413 53.12 97.36 49.28 93.52C45.44 89.5733 41.6 86.1067 37.76 83.12V130H12.8V19.12H37.76V61.04C44.2667 54.2133 50.7733 47.12 57.28 39.76C63.8933 32.2933 70.0267 25.4133 75.68 19.12H105.28C97.7067 28.08 90.08 36.72 82.4 45.04C74.8267 53.36 66.8267 61.7333 58.4 70.16C67.2533 77.52 75.7867 86.2667 84 96.4C92.32 106.533 100.267 117.733 107.84 130H78.24ZM157.055 5.84C161.535 5.84 165.642 6.32 169.375 7.28C173.108 8.13333 175.988 8.98666 178.015 9.83999L173.375 28.88C171.242 27.92 168.895 27.2267 166.335 26.8C163.882 26.2667 161.588 26 159.455 26C156.575 26 154.122 26.4267 152.095 27.28C150.175 28.0267 148.628 29.0933 147.455 30.48C146.388 31.8667 145.588 33.52 145.055 35.44C144.628 37.36 144.415 39.44 144.415 41.68V45.84H173.855V65.68H144.415V130H120.575V41.36C120.575 30.48 123.615 21.84 129.695 15.44C135.882 9.04 145.002 5.84 157.055 5.84ZM265.545 87.76C265.545 94.3733 264.585 100.453 262.665 106C260.745 111.44 257.972 116.133 254.345 120.08C250.718 123.92 246.345 126.907 241.225 129.04C236.212 131.173 230.558 132.24 224.265 132.24C218.078 132.24 212.425 131.173 207.305 129.04C202.292 126.907 197.972 123.92 194.345 120.08C190.718 116.133 187.892 111.44 185.865 106C183.838 100.453 182.825 94.3733 182.825 87.76C182.825 81.1467 183.838 75.12 185.865 69.68C187.998 64.24 190.878 59.6 194.505 55.76C198.238 51.92 202.612 48.9333 207.625 46.8C212.745 44.6667 218.292 43.6 224.265 43.6C230.345 43.6 235.892 44.6667 240.905 46.8C246.025 48.9333 250.398 51.92 254.025 55.76C257.652 59.6 260.478 64.24 262.505 69.68C264.532 75.12 265.545 81.1467 265.545 87.76ZM241.225 87.76C241.225 80.4 239.732 74.64 236.745 70.48C233.865 66.2133 229.705 64.08 224.265 64.08C218.825 64.08 214.612 66.2133 211.625 70.48C208.638 74.64 207.145 80.4 207.145 87.76C207.145 95.12 208.638 100.987 211.625 105.36C214.612 109.627 218.825 111.76 224.265 111.76C229.705 111.76 233.865 109.627 236.745 105.36C239.732 100.987 241.225 95.12 241.225 87.76ZM284.013 48.72C288.066 47.5467 293.293 46.48 299.693 45.52C306.093 44.4533 312.813 43.92 319.852 43.92C326.999 43.92 332.919 44.88 337.613 46.8C342.413 48.6133 346.199 51.2267 348.973 54.64C351.746 58.0533 353.719 62.1067 354.893 66.8C356.066 71.4933 356.653 76.72 356.653 82.48V130H332.813V85.36C332.813 77.68 331.799 72.24 329.773 69.04C327.746 65.84 323.959 64.24 318.413 64.24C316.706 64.24 314.893 64.3467 312.973 64.56C311.053 64.6667 309.346 64.8267 307.853 65.04V130H284.013V48.72ZM374.231 88.56C374.231 81.0933 375.351 74.5867 377.591 69.04C379.938 63.3867 382.978 58.6933 386.711 54.96C390.445 51.2267 394.711 48.4 399.511 46.48C404.418 44.56 409.431 43.6 414.551 43.6C426.498 43.6 435.938 47.28 442.871 54.64C449.805 61.8933 453.271 72.6133 453.271 86.8C453.271 88.1867 453.218 89.7333 453.111 91.44C453.005 93.04 452.898 94.48 452.791 95.76H398.711C399.245 100.667 401.538 104.56 405.591 107.44C409.645 110.32 415.085 111.76 421.911 111.76C426.285 111.76 430.551 111.387 434.711 110.64C438.978 109.787 442.445 108.773 445.111 107.6L448.311 126.96C447.031 127.6 445.325 128.24 443.191 128.88C441.058 129.52 438.658 130.053 435.991 130.48C433.431 131.013 430.658 131.44 427.671 131.76C424.685 132.08 421.698 132.24 418.711 132.24C411.138 132.24 404.525 131.12 398.871 128.88C393.325 126.64 388.685 123.6 384.951 119.76C381.325 115.813 378.605 111.173 376.791 105.84C375.085 100.507 374.231 94.7467 374.231 88.56ZM430.231 79.44C430.125 77.4133 429.751 75.44 429.111 73.52C428.578 71.6 427.671 69.8933 426.391 68.4C425.218 66.9067 423.671 65.68 421.751 64.72C419.938 63.76 417.645 63.28 414.871 63.28C412.205 63.28 409.911 63.76 407.991 64.72C406.071 65.5733 404.471 66.7467 403.191 68.24C401.911 69.7333 400.898 71.4933 400.151 73.52C399.511 75.44 399.031 77.4133 398.711 79.44H430.231Z" fill="#1565C0"/>
</g>
<defs>
<clipPath id="clip0_2_3">
<rect width="461" height="137" fill="white"/>
</clipPath>
</defs>
</svg>
