<svg width="500" height="500" viewBox="0 0 500 500" fill="none" xmlns="http://www.w3.org/2000/svg">
<path d="M98.24 309C96 305.373 93.3333 301.48 90.24 297.32C87.2533 293.053 83.9467 288.84 80.32 284.68C76.8 280.413 73.12 276.36 69.28 272.52C65.44 268.573 61.6 265.107 57.76 262.12V309H32.8V198.12H57.76V240.04C64.2667 233.213 70.7733 226.12 77.28 218.76C83.8933 211.293 90.0267 204.413 95.68 198.12H125.28C117.707 207.08 110.08 215.72 102.4 224.04C94.8267 232.36 86.8267 240.733 78.4 249.16C87.2533 256.52 95.7867 265.267 104 275.4C112.32 285.533 120.267 296.733 127.84 309H98.24ZM177.055 184.84C181.535 184.84 185.642 185.32 189.375 186.28C193.108 187.133 195.988 187.987 198.015 188.84L193.375 207.88C191.242 206.92 188.895 206.227 186.335 205.8C183.882 205.267 181.588 205 179.455 205C176.575 205 174.122 205.427 172.095 206.28C170.175 207.027 168.628 208.093 167.455 209.48C166.388 210.867 165.588 212.52 165.055 214.44C164.628 216.36 164.415 218.44 164.415 220.68V224.84H193.855V244.68H164.415V309H140.575V220.36C140.575 209.48 143.615 200.84 149.695 194.44C155.882 188.04 165.002 184.84 177.055 184.84ZM285.545 266.76C285.545 273.373 284.585 279.453 282.665 285C280.745 290.44 277.972 295.133 274.345 299.08C270.718 302.92 266.345 305.907 261.225 308.04C256.212 310.173 250.558 311.24 244.265 311.24C238.078 311.24 232.425 310.173 227.305 308.04C222.292 305.907 217.972 302.92 214.345 299.08C210.718 295.133 207.892 290.44 205.865 285C203.838 279.453 202.825 273.373 202.825 266.76C202.825 260.147 203.838 254.12 205.865 248.68C207.998 243.24 210.878 238.6 214.505 234.76C218.238 230.92 222.612 227.933 227.625 225.8C232.745 223.667 238.292 222.6 244.265 222.6C250.345 222.6 255.892 223.667 260.905 225.8C266.025 227.933 270.398 230.92 274.025 234.76C277.652 238.6 280.478 243.24 282.505 248.68C284.532 254.12 285.545 260.147 285.545 266.76ZM261.225 266.76C261.225 259.4 259.732 253.64 256.745 249.48C253.865 245.213 249.705 243.08 244.265 243.08C238.825 243.08 234.612 245.213 231.625 249.48C228.638 253.64 227.145 259.4 227.145 266.76C227.145 274.12 228.638 279.987 231.625 284.36C234.612 288.627 238.825 290.76 244.265 290.76C249.705 290.76 253.865 288.627 256.745 284.36C259.732 279.987 261.225 274.12 261.225 266.76ZM304.013 227.72C308.066 226.547 313.293 225.48 319.693 224.52C326.093 223.453 332.813 222.92 339.852 222.92C346.999 222.92 352.919 223.88 357.613 225.8C362.413 227.613 366.199 230.227 368.973 233.64C371.746 237.053 373.719 241.107 374.893 245.8C376.066 250.493 376.653 255.72 376.653 261.48V309H352.813V264.36C352.813 256.68 351.799 251.24 349.773 248.04C347.746 244.84 343.959 243.24 338.413 243.24C336.706 243.24 334.893 243.347 332.973 243.56C331.053 243.667 329.346 243.827 327.853 244.04V309H304.013V227.72ZM394.231 267.56C394.231 260.093 395.351 253.587 397.591 248.04C399.938 242.387 402.978 237.693 406.711 233.96C410.445 230.227 414.711 227.4 419.511 225.48C424.418 223.56 429.431 222.6 434.551 222.6C446.498 222.6 455.938 226.28 462.871 233.64C469.805 240.893 473.271 251.613 473.271 265.8C473.271 267.187 473.218 268.733 473.111 270.44C473.005 272.04 472.898 273.48 472.791 274.76H418.711C419.245 279.667 421.538 283.56 425.591 286.44C429.645 289.32 435.085 290.76 441.911 290.76C446.285 290.76 450.551 290.387 454.711 289.64C458.978 288.787 462.445 287.773 465.111 286.6L468.311 305.96C467.031 306.6 465.325 307.24 463.191 307.88C461.058 308.52 458.658 309.053 455.991 309.48C453.431 310.013 450.658 310.44 447.671 310.76C444.685 311.08 441.698 311.24 438.711 311.24C431.138 311.24 424.525 310.12 418.871 307.88C413.325 305.64 408.685 302.6 404.951 298.76C401.325 294.813 398.605 290.173 396.791 284.84C395.085 279.507 394.231 273.747 394.231 267.56ZM450.231 258.44C450.125 256.413 449.751 254.44 449.111 252.52C448.578 250.6 447.671 248.893 446.391 247.4C445.218 245.907 443.671 244.68 441.751 243.72C439.938 242.76 437.645 242.28 434.871 242.28C432.205 242.28 429.911 242.76 427.991 243.72C426.071 244.573 424.471 245.747 423.191 247.24C421.911 248.733 420.898 250.493 420.151 252.52C419.511 254.44 419.031 256.413 418.711 258.44H450.231Z" fill="#1565C0"/>
</svg>
