<svg width="460" height="139" viewBox="0 0 460 139" fill="none" xmlns="http://www.w3.org/2000/svg">
<g clip-path="url(#clip0_2_6)">
<path d="M78.24 128C76 124.373 73.3333 120.48 70.24 116.32C67.2533 112.053 63.9467 107.84 60.32 103.68C56.8 99.4133 53.12 95.36 49.28 91.52C45.44 87.5733 41.6 84.1067 37.76 81.12V128H12.8V17.12H37.76V59.04C44.2667 52.2133 50.7733 45.12 57.28 37.76C63.8933 30.2933 70.0267 23.4133 75.68 17.12H105.28C97.7067 26.08 90.08 34.72 82.4 43.04C74.8267 51.36 66.8267 59.7333 58.4 68.16C67.2533 75.52 75.7867 84.2667 84 94.4C92.32 104.533 100.267 115.733 107.84 128H78.24ZM157.055 3.84C161.535 3.84 165.642 4.32 169.375 5.28C173.108 6.13333 175.988 6.98666 178.015 7.83999L173.375 26.88C171.242 25.92 168.895 25.2267 166.335 24.8C163.882 24.2667 161.588 24 159.455 24C156.575 24 154.122 24.4267 152.095 25.28C150.175 26.0267 148.628 27.0933 147.455 28.48C146.388 29.8667 145.588 31.52 145.055 33.44C144.628 35.36 144.415 37.44 144.415 39.68V43.84H173.855V63.68H144.415V128H120.575V39.36C120.575 28.48 123.615 19.84 129.695 13.44C135.882 7.04 145.002 3.84 157.055 3.84ZM265.545 85.76C265.545 92.3733 264.585 98.4533 262.665 104C260.745 109.44 257.972 114.133 254.345 118.08C250.718 121.92 246.345 124.907 241.225 127.04C236.212 129.173 230.558 130.24 224.265 130.24C218.078 130.24 212.425 129.173 207.305 127.04C202.292 124.907 197.972 121.92 194.345 118.08C190.718 114.133 187.892 109.44 185.865 104C183.838 98.4533 182.825 92.3733 182.825 85.76C182.825 79.1467 183.838 73.12 185.865 67.68C187.998 62.24 190.878 57.6 194.505 53.76C198.238 49.92 202.612 46.9333 207.625 44.8C212.745 42.6667 218.292 41.6 224.265 41.6C230.345 41.6 235.892 42.6667 240.905 44.8C246.025 46.9333 250.398 49.92 254.025 53.76C257.652 57.6 260.478 62.24 262.505 67.68C264.532 73.12 265.545 79.1467 265.545 85.76ZM241.225 85.76C241.225 78.4 239.732 72.64 236.745 68.48C233.865 64.2133 229.705 62.08 224.265 62.08C218.825 62.08 214.612 64.2133 211.625 68.48C208.638 72.64 207.145 78.4 207.145 85.76C207.145 93.12 208.638 98.9867 211.625 103.36C214.612 107.627 218.825 109.76 224.265 109.76C229.705 109.76 233.865 107.627 236.745 103.36C239.732 98.9867 241.225 93.12 241.225 85.76ZM284.013 46.72C288.066 45.5467 293.293 44.48 299.693 43.52C306.093 42.4533 312.813 41.92 319.852 41.92C326.999 41.92 332.919 42.88 337.613 44.8C342.413 46.6133 346.199 49.2267 348.973 52.64C351.746 56.0533 353.719 60.1067 354.893 64.8C356.066 69.4933 356.653 74.72 356.653 80.48V128H332.813V83.36C332.813 75.68 331.799 70.24 329.773 67.04C327.746 63.84 323.959 62.24 318.413 62.24C316.706 62.24 314.893 62.3467 312.973 62.56C311.053 62.6667 309.346 62.8267 307.853 63.04V128H284.013V46.72ZM374.231 86.56C374.231 79.0933 375.351 72.5867 377.591 67.04C379.938 61.3867 382.978 56.6933 386.711 52.96C390.445 49.2267 394.711 46.4 399.511 44.48C404.418 42.56 409.431 41.6 414.551 41.6C426.498 41.6 435.938 45.28 442.871 52.64C449.805 59.8933 453.271 70.6133 453.271 84.8C453.271 86.1867 453.218 87.7333 453.111 89.44C453.005 91.04 452.898 92.48 452.791 93.76H398.711C399.245 98.6667 401.538 102.56 405.591 105.44C409.645 108.32 415.085 109.76 421.911 109.76C426.285 109.76 430.551 109.387 434.711 108.64C438.978 107.787 442.445 106.773 445.111 105.6L448.311 124.96C447.031 125.6 445.325 126.24 443.191 126.88C441.058 127.52 438.658 128.053 435.991 128.48C433.431 129.013 430.658 129.44 427.671 129.76C424.685 130.08 421.698 130.24 418.711 130.24C411.138 130.24 404.525 129.12 398.871 126.88C393.325 124.64 388.685 121.6 384.951 117.76C381.325 113.813 378.605 109.173 376.791 103.84C375.085 98.5067 374.231 92.7467 374.231 86.56ZM430.231 77.44C430.125 75.4133 429.751 73.44 429.111 71.52C428.578 69.6 427.671 67.8933 426.391 66.4C425.218 64.9067 423.671 63.68 421.751 62.72C419.938 61.76 417.645 61.28 414.871 61.28C412.205 61.28 409.911 61.76 407.991 62.72C406.071 63.5733 404.471 64.7467 403.191 66.24C401.911 67.7333 400.898 69.4933 400.151 71.52C399.511 73.44 399.031 75.4133 398.711 77.44H430.231Z" fill="white"/>
</g>
<defs>
<clipPath id="clip0_2_6">
<rect width="460" height="139" fill="white"/>
</clipPath>
</defs>
</svg>
